<svg width="24" height="30" viewBox="0 0 24 30" fill="none" xmlns="http://www.w3.org/2000/svg">
<path d="M23.2482 10.0675C21.2819 11.2825 20.0675 13.3655 20.0675 15.6798C20.0675 18.2835 21.6289 20.6557 24 21.6393C23.5373 23.1437 22.8434 24.5323 21.9759 25.8052C20.7036 27.5988 19.3735 29.4503 17.4072 29.4503C15.441 29.4503 14.8627 28.2932 12.5494 28.2932C10.294 28.2932 9.48434 29.5082 7.63373 29.5082C5.78313 29.5082 4.51084 27.8303 3.06506 25.7473C1.15663 22.8544 0.0578313 19.4986 0 15.9691C0 10.2411 3.7012 7.17454 7.40241 7.17454C9.36867 7.17454 10.988 8.44744 12.2024 8.44744C13.359 8.44744 15.2096 7.11668 17.4072 7.11668C19.7205 7.05882 21.9181 8.15815 23.2482 10.0675ZM16.3663 4.6866C17.3494 3.52941 17.8699 2.08293 17.9277 0.578592C17.9277 0.405014 17.9277 0.173578 17.8699 0C16.1928 0.173578 14.6313 0.983607 13.5325 2.25651C12.5494 3.35583 11.9711 4.74446 11.9133 6.2488C11.9133 6.42237 11.9133 6.59595 11.9711 6.76953C12.0867 6.76953 12.2602 6.82739 12.3759 6.82739C13.9373 6.71167 15.3831 5.90164 16.3663 4.6866Z" fill="black"/>
</svg>
