<svg width="24" height="24" viewBox="0 0 24 24" fill="none" xmlns="http://www.w3.org/2000/svg">
<mask id="mask0_452_2882" style="mask-type:alpha" maskUnits="userSpaceOnUse" x="0" y="0" width="24" height="24">
<rect width="24" height="24" fill="#D9D9D9"/>
</mask>
<g mask="url(#mask0_452_2882)">
<path d="M5.2 20.9999C4.58333 20.9999 4.0625 20.7874 3.6375 20.3624C3.2125 19.9374 3 19.4166 3 18.7999V5.09988C3 4.61655 3.225 4.27905 3.675 4.08738C4.125 3.89572 4.51667 3.96655 4.85 4.29988L7.1 6.54988L5.75 7.89988L6.45 8.59988L7.8 7.24988L10.4 9.84988L9.05 11.1999L9.75 11.8999L11.1 10.5499L13.7 13.1499L12.35 14.4999L13.05 15.1999L14.4 13.8499L17 16.4499L15.65 17.7999L16.35 18.4999L17.7 17.1499L19.7 19.1499C20.0333 19.4832 20.1042 19.8749 19.9125 20.3249C19.7208 20.7749 19.3833 20.9999 18.9 20.9999H5.2ZM6 17.9999H14.3L6 9.69988V17.9999Z" fill="#0064E5"/>
</g>
</svg>
