<svg width="40" height="40" viewBox="0 0 40 40" fill="none" xmlns="http://www.w3.org/2000/svg">
<mask id="mask0_414_616" style="mask-type:alpha" maskUnits="userSpaceOnUse" x="8" y="8" width="24" height="24">
<rect x="8" y="8" width="24" height="24" fill="#D9D9D9"/>
</mask>
<g mask="url(#mask0_414_616)">
<path d="M14 19.275V21.6C13.6667 21.8333 13.4167 22.0708 13.25 22.3125C13.0833 22.5542 13 22.7833 13 23C13 23.1 13.0125 23.2 13.0375 23.3C13.0625 23.4 13.1083 23.5 13.175 23.6L14 24H16.25L16.4 24.425L17.5 24H21.5L22.225 24.95L24.9 24.55L26 23H27C27 22.7833 26.9167 22.5542 26.75 22.3125C26.5833 22.0708 26.3333 21.8333 26 21.6V19.275C26.9667 19.7583 27.7083 20.3208 28.225 20.9625C28.7417 21.6042 29 22.2833 29 23L30 24.5L29 27.5H25.9L26 28L23.5 29H16.5L16.25 28.35L13.5 29L10 26.5V24L11.05 23.475C11.0333 23.3917 11.0208 23.3125 11.0125 23.2375C11.0042 23.1625 11 23.0833 11 23C11 22.2833 11.2583 21.6042 11.775 20.9625C12.2917 20.3208 13.0333 19.7583 14 19.275ZM12.05 26.075L12.975 25.15L12 24.675L11.5 24.925V25.7L12.05 26.075ZM13.875 27.375L15.75 26.925L15.2 25.5H14.75L13.325 26.925L13.875 27.375ZM17.55 27.5H20.575L21.25 26.15L20.75 25.5H17.8L16.95 25.85L17.55 27.5ZM22.3 27.5H23.2L24.25 27.075L24.075 26.2L22.95 26.375L22.3 27.5ZM25.75 26H27.925L28.35 24.725L28.2 24.5H26.775L25.75 26ZM14.75 21C14.8333 20.75 14.8958 20.5125 14.9375 20.2875C14.9792 20.0625 15 19.8167 15 19.55C15 19.05 14.875 18.6167 14.625 18.25C14.375 17.8833 14.0917 17.4917 13.775 17.075C13.4583 16.6583 13.175 16.1958 12.925 15.6875C12.675 15.1792 12.55 14.525 12.55 13.725C12.55 13.475 12.5625 13.2083 12.5875 12.925C12.6125 12.6417 12.6583 12.3333 12.725 12H14.75C14.6667 12.3833 14.6125 12.7 14.5875 12.95C14.5625 13.2 14.55 13.4333 14.55 13.65C14.55 14.2667 14.6792 14.7792 14.9375 15.1875C15.1958 15.5958 15.475 16 15.775 16.4C16.075 16.8 16.3542 17.2417 16.6125 17.725C16.8708 18.2083 17 18.8333 17 19.6C17 19.8333 16.9833 20.0667 16.95 20.3C16.9167 20.5333 16.8667 20.7667 16.8 21H14.75ZM18.75 21C18.8333 20.75 18.8958 20.5125 18.9375 20.2875C18.9792 20.0625 19 19.8167 19 19.55C19 19.05 18.875 18.6167 18.625 18.25C18.375 17.8833 18.0917 17.4917 17.775 17.075C17.4583 16.6583 17.175 16.1958 16.925 15.6875C16.675 15.1792 16.55 14.525 16.55 13.725C16.55 13.475 16.5625 13.2083 16.5875 12.925C16.6125 12.6417 16.6583 12.3333 16.725 12H18.75C18.6667 12.3833 18.6083 12.7 18.575 12.95C18.5417 13.2 18.525 13.4333 18.525 13.65C18.525 14.2667 18.6542 14.7792 18.9125 15.1875C19.1708 15.5958 19.45 16 19.75 16.4C20.05 16.8 20.3292 17.2417 20.5875 17.725C20.8458 18.2083 20.975 18.8333 20.975 19.6C20.975 19.8333 20.9625 20.0667 20.9375 20.3C20.9125 20.5333 20.8667 20.7667 20.8 21H18.75ZM22.75 21C22.8333 20.75 22.8958 20.5125 22.9375 20.2875C22.9792 20.0625 23 19.8167 23 19.55C23 19.05 22.875 18.6167 22.625 18.25C22.375 17.8833 22.0917 17.4917 21.775 17.075C21.4583 16.6583 21.175 16.1958 20.925 15.6875C20.675 15.1792 20.55 14.525 20.55 13.725C20.55 13.475 20.5625 13.2083 20.5875 12.925C20.6125 12.6417 20.6583 12.3333 20.725 12H22.75C22.6667 12.3833 22.6083 12.7 22.575 12.95C22.5417 13.2 22.525 13.4333 22.525 13.65C22.525 14.2667 22.6542 14.7792 22.9125 15.1875C23.1708 15.5958 23.45 16 23.75 16.4C24.05 16.8 24.3292 17.2417 24.5875 17.725C24.8458 18.2083 24.975 18.8333 24.975 19.6C24.975 19.8333 24.9625 20.0667 24.9375 20.3C24.9125 20.5333 24.8667 20.7667 24.8 21H22.75Z" fill="#1C1B1F"/>
</g>
</svg>
