<svg width="40" height="40" viewBox="0 0 40 40" fill="none" xmlns="http://www.w3.org/2000/svg">
<mask id="mask0_414_643" style="mask-type:alpha" maskUnits="userSpaceOnUse" x="8" y="8" width="24" height="24">
<rect x="8" y="8" width="24" height="24" fill="#D9D9D9"/>
</mask>
<g mask="url(#mask0_414_643)">
<path d="M18.65 28C18.5 27.5667 18.3083 27.1667 18.075 26.8C17.8417 26.4333 17.5667 26.0917 17.25 25.775C16.9333 25.4583 16.5917 25.1792 16.225 24.9375C15.8583 24.6958 15.4583 24.5 15.025 24.35C15.0583 24.8333 15.175 25.2833 15.375 25.7C15.575 26.1167 15.8417 26.4917 16.175 26.825C16.5083 27.1583 16.8833 27.4292 17.3 27.6375C17.7167 27.8458 18.1667 27.9667 18.65 28ZM21.35 28C21.8333 27.95 22.2833 27.825 22.7 27.625C23.1167 27.425 23.4917 27.1583 23.825 26.825C24.1583 26.4917 24.425 26.1167 24.625 25.7C24.825 25.2833 24.95 24.8333 25 24.35C24.5667 24.5 24.1625 24.6917 23.7875 24.925C23.4125 25.1583 23.0667 25.4333 22.75 25.75C22.4333 26.0667 22.1583 26.4125 21.925 26.7875C21.6917 27.1625 21.5 27.5667 21.35 28ZM22.825 17.825C23.6083 17.0417 24 16.1 24 15V13.8L22.25 15.275L20 12.55L17.75 15.275L16 13.8V15C16 16.1 16.3917 17.0417 17.175 17.825C17.9583 18.6083 18.9 19 20 19C21.1 19 22.0417 18.6083 22.825 17.825ZM19 30C17.3333 30 15.9167 29.4167 14.75 28.25C13.5833 27.0833 13 25.6667 13 24V22C14.1833 21.9833 15.3 22.225 16.35 22.725C17.4 23.225 18.2833 23.9 19 24.75V20.925C17.5667 20.6917 16.375 20.0208 15.425 18.9125C14.475 17.8042 14 16.5 14 15V11.6C14 11.1667 14.1917 10.8625 14.575 10.6875C14.9583 10.5125 15.3167 10.5667 15.65 10.85L17.5 12.45L19.225 10.35C19.425 10.1167 19.6833 10 20 10C20.3167 10 20.575 10.1167 20.775 10.35L22.5 12.45L24.35 10.85C24.6833 10.5667 25.0417 10.5125 25.425 10.6875C25.8083 10.8625 26 11.1667 26 11.6V15C26 16.5 25.525 17.8042 24.575 18.9125C23.625 20.0208 22.4333 20.6917 21 20.925V24.75C21.7167 23.9 22.6 23.225 23.65 22.725C24.7 22.225 25.8167 21.9833 27 22V24C27 25.6667 26.4167 27.0833 25.25 28.25C24.0833 29.4167 22.6667 30 21 30H19Z" fill="#1C1B1F"/>
</g>
</svg>
