<svg width="24" height="25" viewBox="0 0 24 25" fill="none" xmlns="http://www.w3.org/2000/svg">
<g clip-path="url(#clip0_141_1447)">
<mask id="mask0_141_1447" style="mask-type:luminance" maskUnits="userSpaceOnUse" x="0" y="0" width="24" height="25">
<path d="M23.7695 10.181H12.2556V14.9868H18.8716C18.7652 15.6669 18.5264 16.336 18.1767 16.9461C17.776 17.6451 17.2807 18.1773 16.7729 18.5825C15.2521 19.7965 13.479 20.0447 12.2476 20.0447C9.13691 20.0447 6.47903 17.9505 5.45011 15.1048C5.40859 15.0015 5.38102 14.8948 5.34744 14.7894C5.12007 14.0651 4.99584 13.2981 4.99584 12.5008C4.99584 11.6711 5.13037 10.8768 5.37566 10.1267C6.34319 7.16814 9.06099 4.9584 12.2498 4.9584C12.8912 4.9584 13.5089 5.03793 14.0946 5.19655C15.4333 5.55907 16.3801 6.27304 16.9603 6.83779L20.4613 3.26641C18.3317 1.23247 15.5555 3.07518e-09 12.244 3.07518e-09C9.59665 -5.93534e-05 7.1525 0.859147 5.1496 2.31123C3.52531 3.48884 2.19316 5.0655 1.29412 6.89662C0.457891 8.59444 0 10.4759 0 12.4989C0 14.522 0.458591 16.423 1.29483 18.1052V18.1165C2.1781 19.9023 3.46975 21.4399 5.0396 22.6121C6.41104 23.6361 8.87017 25 12.244 25C14.1842 25 15.9038 24.6356 17.4203 23.9527C18.5142 23.4601 19.4835 22.8176 20.3611 21.9919C21.5206 20.9007 22.4288 19.5512 23.0486 17.9984C23.6684 16.4457 24 14.6898 24 12.7861C24 11.8995 23.9145 10.9992 23.7695 10.1809V10.181Z" fill="white"/>
</mask>
<g mask="url(#mask0_141_1447)">
<g filter="url(#filter0_f_141_1447)">
<path d="M-0.176514 12.5838C-0.163787 14.5749 0.380886 16.6293 1.20534 18.2877V18.2991C1.80105 19.5035 2.61521 20.4549 3.54252 21.3975L9.14327 19.2688C8.08364 18.7081 7.92195 18.3645 7.16237 17.7376C6.38615 16.9223 5.80762 15.9863 5.44734 14.8888H5.43282L5.44734 14.8774C5.21031 14.1526 5.18693 13.3833 5.17819 12.5838H-0.176514Z" fill="url(#paint0_radial_141_1447)"/>
</g>
<g filter="url(#filter1_f_141_1447)">
<path d="M12.2559 -0.0909424C11.7023 1.93488 11.914 3.90405 12.2559 5.0498C12.8952 5.0503 13.511 5.12967 14.0949 5.2878C15.4335 5.65032 16.3803 6.36431 16.9605 6.92906L20.551 3.26645C18.424 1.23492 15.8642 -0.0877416 12.2559 -0.0909424Z" fill="url(#paint1_radial_141_1447)"/>
</g>
<g filter="url(#filter2_f_141_1447)">
<path d="M12.2439 -0.106934C9.52858 -0.106995 7.0217 0.77427 4.96738 2.26364C4.20461 2.81664 3.50463 3.45545 2.88135 4.16582C2.71806 5.76152 4.10367 7.72278 6.84759 7.70655C8.17893 6.09337 10.1479 5.04965 12.3395 5.04965C12.3415 5.04965 12.3434 5.04982 12.3454 5.04983L12.2559 -0.106569C12.2519 -0.106571 12.2479 -0.106934 12.2439 -0.106934Z" fill="url(#paint2_radial_141_1447)"/>
</g>
<g filter="url(#filter3_f_141_1447)">
<path d="M21.2059 13.1612L18.7822 14.8956C18.6759 15.5757 18.4369 16.2448 18.0872 16.8549C17.6865 17.5539 17.1912 18.086 16.6835 18.4913C15.1658 19.7028 13.3974 19.9522 12.1663 19.9532C10.8939 22.2107 10.6708 23.3415 12.2558 25.1635C14.2171 25.162 15.9559 24.7932 17.4896 24.1026C18.5982 23.6033 19.5805 22.9522 20.4698 22.1153C21.6449 21.0096 22.5654 19.6418 23.1935 18.0683C23.8217 16.4947 24.1576 14.7153 24.1576 12.7861L21.2059 13.1612Z" fill="url(#paint3_radial_141_1447)"/>
</g>
<g filter="url(#filter4_f_141_1447)">
<path d="M12.0769 9.99835V15.1694H23.7374C23.84 14.4612 24.1792 13.5448 24.1792 12.7861C24.1792 11.8996 24.0938 10.8167 23.9488 9.99835H12.0769Z" fill="#3086FF"/>
</g>
<g filter="url(#filter5_f_141_1447)">
<path d="M2.93687 3.98328C2.21729 4.80339 1.60255 5.72134 1.11514 6.71409C0.278915 8.41191 -0.178955 10.476 -0.178955 12.499C-0.178955 12.5275 -0.17669 12.5554 -0.176507 12.5838C0.193829 13.3235 4.93902 13.1818 5.1782 12.5838C5.1779 12.5559 5.17488 12.5287 5.17488 12.5007C5.17488 11.671 5.30945 11.0594 5.55474 10.3093C5.85733 9.38401 6.33113 8.53195 6.93699 7.79783C7.07433 7.61518 7.44067 7.22253 7.54754 6.98701C7.58826 6.8973 7.47363 6.84695 7.46722 6.81537C7.46005 6.78005 7.30636 6.80845 7.27193 6.78215C7.16261 6.69862 6.94613 6.655 6.81467 6.61623C6.5337 6.53336 6.06804 6.3506 5.80941 6.16115C4.99186 5.56232 3.716 4.84702 2.93687 3.98328Z" fill="url(#paint4_radial_141_1447)"/>
</g>
<g filter="url(#filter6_f_141_1447)">
<path d="M5.82694 6.81891C7.72274 8.01515 8.26794 6.2151 9.52839 5.65182L7.3358 0.915527C6.52924 1.26865 5.76721 1.70736 5.06016 2.21997C4.00424 2.9855 3.07179 3.91968 2.30151 4.98278L5.82694 6.81891Z" fill="url(#paint5_radial_141_1447)"/>
</g>
<g filter="url(#filter7_f_141_1447)">
<path d="M6.59868 18.9029C4.05381 19.8599 3.6554 19.8942 3.42114 21.5371C3.86879 21.9921 4.34976 22.4131 4.86086 22.7947C6.2323 23.8187 8.87036 25.1826 12.2442 25.1826C12.2482 25.1826 12.252 25.1822 12.2559 25.1822V19.862C12.2534 19.862 12.2504 19.8621 12.2479 19.8621C10.9845 19.8621 9.97492 19.5165 8.93979 18.9154C8.68458 18.7672 8.22154 19.1652 7.98617 18.9872C7.66153 18.7419 6.88026 19.1987 6.59868 18.9029Z" fill="url(#paint6_radial_141_1447)"/>
</g>
<g opacity="0.5" filter="url(#filter8_f_141_1447)">
<path d="M10.7654 19.6944V25.0901C11.2374 25.1476 11.7287 25.1826 12.2441 25.1826C12.7607 25.1826 13.2605 25.155 13.7462 25.1042V19.7308C13.2019 19.8277 12.6893 19.8622 12.2477 19.8622C11.7392 19.8622 11.2446 19.8005 10.7654 19.6944Z" fill="url(#paint7_linear_141_1447)"/>
</g>
</g>
</g>
<defs>
<filter id="filter0_f_141_1447" x="-0.646593" y="12.1137" width="10.26" height="9.75388" filterUnits="userSpaceOnUse" color-interpolation-filters="sRGB">
<feFlood flood-opacity="0" result="BackgroundImageFix"/>
<feBlend mode="normal" in="SourceGraphic" in2="BackgroundImageFix" result="shape"/>
<feGaussianBlur stdDeviation="0.23504" result="effect1_foregroundBlur_141_1447"/>
</filter>
<filter id="filter1_f_141_1447" x="11.4454" y="-0.561022" width="9.57566" height="7.96018" filterUnits="userSpaceOnUse" color-interpolation-filters="sRGB">
<feFlood flood-opacity="0" result="BackgroundImageFix"/>
<feBlend mode="normal" in="SourceGraphic" in2="BackgroundImageFix" result="shape"/>
<feGaussianBlur stdDeviation="0.23504" result="effect1_foregroundBlur_141_1447"/>
</filter>
<filter id="filter2_f_141_1447" x="2.39833" y="-0.577013" width="10.4172" height="8.75376" filterUnits="userSpaceOnUse" color-interpolation-filters="sRGB">
<feFlood flood-opacity="0" result="BackgroundImageFix"/>
<feBlend mode="normal" in="SourceGraphic" in2="BackgroundImageFix" result="shape"/>
<feGaussianBlur stdDeviation="0.23504" result="effect1_foregroundBlur_141_1447"/>
</filter>
<filter id="filter3_f_141_1447" x="10.6688" y="12.3161" width="13.9587" height="13.3175" filterUnits="userSpaceOnUse" color-interpolation-filters="sRGB">
<feFlood flood-opacity="0" result="BackgroundImageFix"/>
<feBlend mode="normal" in="SourceGraphic" in2="BackgroundImageFix" result="shape"/>
<feGaussianBlur stdDeviation="0.23504" result="effect1_foregroundBlur_141_1447"/>
</filter>
<filter id="filter4_f_141_1447" x="11.6068" y="9.52827" width="13.0425" height="6.11118" filterUnits="userSpaceOnUse" color-interpolation-filters="sRGB">
<feFlood flood-opacity="0" result="BackgroundImageFix"/>
<feBlend mode="normal" in="SourceGraphic" in2="BackgroundImageFix" result="shape"/>
<feGaussianBlur stdDeviation="0.23504" result="effect1_foregroundBlur_141_1447"/>
</filter>
<filter id="filter5_f_141_1447" x="-0.649034" y="3.5132" width="8.67527" height="10.0437" filterUnits="userSpaceOnUse" color-interpolation-filters="sRGB">
<feFlood flood-opacity="0" result="BackgroundImageFix"/>
<feBlend mode="normal" in="SourceGraphic" in2="BackgroundImageFix" result="shape"/>
<feGaussianBlur stdDeviation="0.23504" result="effect1_foregroundBlur_141_1447"/>
</filter>
<filter id="filter6_f_141_1447" x="-1.00334" y="-2.38932" width="13.8365" height="12.9151" filterUnits="userSpaceOnUse" color-interpolation-filters="sRGB">
<feFlood flood-opacity="0" result="BackgroundImageFix"/>
<feBlend mode="normal" in="SourceGraphic" in2="BackgroundImageFix" result="shape"/>
<feGaussianBlur stdDeviation="1.65243" result="effect1_foregroundBlur_141_1447"/>
</filter>
<filter id="filter7_f_141_1447" x="2.95106" y="18.4115" width="9.77488" height="7.24118" filterUnits="userSpaceOnUse" color-interpolation-filters="sRGB">
<feFlood flood-opacity="0" result="BackgroundImageFix"/>
<feBlend mode="normal" in="SourceGraphic" in2="BackgroundImageFix" result="shape"/>
<feGaussianBlur stdDeviation="0.23504" result="effect1_foregroundBlur_141_1447"/>
</filter>
<filter id="filter8_f_141_1447" x="10.2953" y="19.2243" width="3.92087" height="6.42838" filterUnits="userSpaceOnUse" color-interpolation-filters="sRGB">
<feFlood flood-opacity="0" result="BackgroundImageFix"/>
<feBlend mode="normal" in="SourceGraphic" in2="BackgroundImageFix" result="shape"/>
<feGaussianBlur stdDeviation="0.23504" result="effect1_foregroundBlur_141_1447"/>
</filter>
<radialGradient id="paint0_radial_141_1447" cx="0" cy="0" r="1" gradientTransform="matrix(-0.498722 -12.4499 17.9311 -0.747108 9.03115 21.21)" gradientUnits="userSpaceOnUse">
<stop offset="0.141612" stop-color="#1ABD4D"/>
<stop offset="0.247515" stop-color="#6EC30D"/>
<stop offset="0.311547" stop-color="#8AC502"/>
<stop offset="0.366013" stop-color="#A2C600"/>
<stop offset="0.445673" stop-color="#C8C903"/>
<stop offset="0.540305" stop-color="#EBCB03"/>
<stop offset="0.615636" stop-color="#F7CD07"/>
<stop offset="0.699345" stop-color="#FDCD04"/>
<stop offset="0.771242" stop-color="#FDCE05"/>
<stop offset="0.860566" stop-color="#FFCE0A"/>
</radialGradient>
<radialGradient id="paint1_radial_141_1447" cx="0" cy="0" r="1" gradientTransform="matrix(8.46967 -2.12038e-05 -1.19045e-05 11.1555 20.2151 6.66406)" gradientUnits="userSpaceOnUse">
<stop offset="0.408458" stop-color="#FB4E5A"/>
<stop offset="1" stop-color="#FF4540"/>
</radialGradient>
<radialGradient id="paint2_radial_141_1447" cx="0" cy="0" r="1" gradientTransform="matrix(-11.8666 6.70304 8.91875 16.4229 15.5898 -1.72173)" gradientUnits="userSpaceOnUse">
<stop offset="0.231273" stop-color="#FF4541"/>
<stop offset="0.311547" stop-color="#FF4540"/>
<stop offset="0.457516" stop-color="#FF4640"/>
<stop offset="0.540305" stop-color="#FF473F"/>
<stop offset="0.699346" stop-color="#FF5138"/>
<stop offset="0.771242" stop-color="#FF5B33"/>
<stop offset="0.860566" stop-color="#FF6C29"/>
<stop offset="1" stop-color="#FF8C18"/>
</radialGradient>
<radialGradient id="paint3_radial_141_1447" cx="0" cy="0" r="1" gradientTransform="matrix(-21.5204 -28.6507 -10.3696 8.10158 12.4322 23.5454)" gradientUnits="userSpaceOnUse">
<stop offset="0.131546" stop-color="#0CBA65"/>
<stop offset="0.209784" stop-color="#0BB86D"/>
<stop offset="0.297297" stop-color="#09B479"/>
<stop offset="0.396257" stop-color="#08AD93"/>
<stop offset="0.477124" stop-color="#0AA6A9"/>
<stop offset="0.568425" stop-color="#0D9CC6"/>
<stop offset="0.667385" stop-color="#1893DD"/>
<stop offset="0.768727" stop-color="#258BF1"/>
<stop offset="0.858506" stop-color="#3086FF"/>
</radialGradient>
<radialGradient id="paint4_radial_141_1447" cx="0" cy="0" r="1" gradientTransform="matrix(-1.52295 13.3877 18.1501 2.14759 11.2041 2.25425)" gradientUnits="userSpaceOnUse">
<stop offset="0.366013" stop-color="#FF4E3A"/>
<stop offset="0.457516" stop-color="#FF8A1B"/>
<stop offset="0.540305" stop-color="#FFA312"/>
<stop offset="0.615636" stop-color="#FFB60C"/>
<stop offset="0.771242" stop-color="#FFCD0A"/>
<stop offset="0.860566" stop-color="#FECF0A"/>
<stop offset="0.915033" stop-color="#FECF08"/>
<stop offset="1" stop-color="#FDCD01"/>
</radialGradient>
<radialGradient id="paint5_radial_141_1447" cx="0" cy="0" r="1" gradientTransform="matrix(-4.40212 4.96539 -13.7322 -12.6631 9.06244 2.11538)" gradientUnits="userSpaceOnUse">
<stop offset="0.315904" stop-color="#FF4C3C"/>
<stop offset="0.603818" stop-color="#FF692C"/>
<stop offset="0.726837" stop-color="#FF7825"/>
<stop offset="0.884534" stop-color="#FF8D1B"/>
<stop offset="1" stop-color="#FF9F13"/>
</radialGradient>
<radialGradient id="paint6_radial_141_1447" cx="0" cy="0" r="1" gradientTransform="matrix(-11.8666 -6.70304 8.91876 -16.4229 15.5898 26.7214)" gradientUnits="userSpaceOnUse">
<stop offset="0.231273" stop-color="#0FBC5F"/>
<stop offset="0.311547" stop-color="#0FBC5F"/>
<stop offset="0.366013" stop-color="#0FBC5E"/>
<stop offset="0.457516" stop-color="#0FBC5D"/>
<stop offset="0.540305" stop-color="#12BC58"/>
<stop offset="0.699346" stop-color="#28BF3C"/>
<stop offset="0.771242" stop-color="#38C02B"/>
<stop offset="0.860566" stop-color="#52C218"/>
<stop offset="0.915033" stop-color="#67C30F"/>
<stop offset="1" stop-color="#86C504"/>
</radialGradient>
<linearGradient id="paint7_linear_141_1447" x1="10.7654" y1="22.4385" x2="13.7462" y2="22.4385" gradientUnits="userSpaceOnUse">
<stop stop-color="#0FBC5C"/>
<stop offset="1" stop-color="#0CBA65"/>
</linearGradient>
<clipPath id="clip0_141_1447">
<rect width="24" height="25" fill="white"/>
</clipPath>
</defs>
</svg>
