<svg width="40" height="40" viewBox="0 0 40 40" fill="none" xmlns="http://www.w3.org/2000/svg">
<mask id="mask0_414_631" style="mask-type:alpha" maskUnits="userSpaceOnUse" x="8" y="8" width="24" height="24">
<rect x="8" y="8" width="24" height="24" fill="#D9D9D9"/>
</mask>
<g mask="url(#mask0_414_631)">
<path d="M21.4 29.9001L20 28.5001L23.55 24.9501L15.05 16.4501L11.5 20.0001L10.1 18.6001L11.5 17.1501L10.1 15.7501L12.2 13.6501L10.8 12.2001L12.2 10.8001L13.65 12.2001L15.75 10.1001L17.15 11.5001L18.6 10.1001L20 11.5001L16.45 15.0501L24.95 23.5501L28.5 20.0001L29.9 21.4001L28.5 22.8501L29.9 24.2501L27.8 26.3501L29.2 27.8001L27.8 29.2001L26.35 27.8001L24.25 29.9001L22.85 28.5001L21.4 29.9001Z" fill="#1C1B1F"/>
</g>
</svg>
