<svg width="40" height="40" viewBox="0 0 40 40" fill="none" xmlns="http://www.w3.org/2000/svg">
<mask id="mask0_414_640" style="mask-type:alpha" maskUnits="userSpaceOnUse" x="8" y="8" width="24" height="24">
<rect x="8" y="8" width="24" height="24" fill="#D9D9D9"/>
</mask>
<g mask="url(#mask0_414_640)">
<path d="M14 29V11H21C22.6667 11 24.0833 11.5833 25.25 12.75C26.4167 13.9167 27 15.3333 27 17C27 18.6667 26.4167 20.0833 25.25 21.25C24.0833 22.4167 22.6667 23 21 23H18V29H14ZM18 19H21.2C21.75 19 22.2208 18.8042 22.6125 18.4125C23.0042 18.0208 23.2 17.55 23.2 17C23.2 16.45 23.0042 15.9792 22.6125 15.5875C22.2208 15.1958 21.75 15 21.2 15H18V19Z" fill="#1C1B1F"/>
</g>
</svg>
