<svg width="24" height="24" viewBox="0 0 24 24" fill="none" xmlns="http://www.w3.org/2000/svg">
<mask id="mask0_245_3079" style="mask-type:alpha" maskUnits="userSpaceOnUse" x="0" y="0" width="24" height="24">
<rect width="24" height="24" fill="#D9D9D9"/>
</mask>
<g mask="url(#mask0_245_3079)">
<path d="M4 22V8C4 7.45 4.19583 6.97917 4.5875 6.5875C4.97917 6.19583 5.45 6 6 6H14C14.55 6 15.0208 6.19583 15.4125 6.5875C15.8042 6.97917 16 7.45 16 8V22L10 19L4 22ZM6 18.975L10 16.825L14 18.975V8H6V18.975ZM18 18V4H7V2H18C18.55 2 19.0208 2.19583 19.4125 2.5875C19.8042 2.97917 20 3.45 20 4V18H18Z" fill="black"/>
</g>
</svg>
