<svg width="40" height="40" viewBox="0 0 40 40" fill="none" xmlns="http://www.w3.org/2000/svg">
<mask id="mask0_414_637" style="mask-type:alpha" maskUnits="userSpaceOnUse" x="8" y="8" width="24" height="24">
<rect x="8" y="8" width="24" height="24" fill="#D9D9D9"/>
</mask>
<g mask="url(#mask0_414_637)">
<path d="M26.0625 24.5625C26.3542 24.2708 26.5 23.9167 26.5 23.5C26.5 23.0833 26.3542 22.7292 26.0625 22.4375C25.7708 22.1458 25.4167 22 25 22C24.5833 22 24.2292 22.1458 23.9375 22.4375C23.6458 22.7292 23.5 23.0833 23.5 23.5C23.5 23.9167 23.6458 24.2708 23.9375 24.5625C24.2292 24.8542 24.5833 25 25 25C25.4167 25 25.7708 24.8542 26.0625 24.5625ZM25 28C25.5167 28 25.9917 27.8792 26.425 27.6375C26.8583 27.3958 27.2083 27.075 27.475 26.675C27.1083 26.4583 26.7167 26.2917 26.3 26.175C25.8833 26.0583 25.45 26 25 26C24.55 26 24.1167 26.0583 23.7 26.175C23.2833 26.2917 22.8917 26.4583 22.525 26.675C22.7917 27.075 23.1417 27.3958 23.575 27.6375C24.0083 27.8792 24.4833 28 25 28ZM20 30C17.6833 29.4167 15.7708 28.0875 14.2625 26.0125C12.7542 23.9375 12 21.6333 12 19.1V13L20 10L28 13V18.675C27.6833 18.5417 27.3583 18.4208 27.025 18.3125C26.6917 18.2042 26.35 18.125 26 18.075V14.4L20 12.15L14 14.4V19.1C14 19.8833 14.1042 20.6667 14.3125 21.45C14.5208 22.2333 14.8125 22.9792 15.1875 23.6875C15.5625 24.3958 16.0167 25.05 16.55 25.65C17.0833 26.25 17.675 26.75 18.325 27.15C18.5083 27.6833 18.75 28.1917 19.05 28.675C19.35 29.1583 19.6917 29.5917 20.075 29.975C20.0583 29.975 20.0458 29.9792 20.0375 29.9875C20.0292 29.9958 20.0167 30 20 30ZM25 30C23.6167 30 22.4375 29.5125 21.4625 28.5375C20.4875 27.5625 20 26.3833 20 25C20 23.6167 20.4875 22.4375 21.4625 21.4625C22.4375 20.4875 23.6167 20 25 20C26.3833 20 27.5625 20.4875 28.5375 21.4625C29.5125 22.4375 30 23.6167 30 25C30 26.3833 29.5125 27.5625 28.5375 28.5375C27.5625 29.5125 26.3833 30 25 30Z" fill="#1C1B1F"/>
</g>
</svg>
