<svg width="30" height="30" viewBox="0 0 30 30" fill="none" xmlns="http://www.w3.org/2000/svg">
<mask id="mask0_143_4261" style="mask-type:alpha" maskUnits="userSpaceOnUse" x="0" y="0" width="30" height="30">
<rect width="30" height="30" fill="#D9D9D9"/>
</mask>
<g mask="url(#mask0_143_4261)">
<path d="M15 29.1252L10.8125 25.0002H5V19.1877L0.875 15.0002L5 10.8127V5.00024H10.8125L15 0.875244L19.1875 5.00024H25V10.8127L29.125 15.0002L25 19.1877V25.0002H19.1875L15 29.1252ZM15 21.2502C16.7292 21.2502 18.2031 20.6409 19.4219 19.4221C20.6406 18.2034 21.25 16.7294 21.25 15.0002C21.25 13.2711 20.6406 11.7971 19.4219 10.5784C18.2031 9.35962 16.7292 8.75024 15 8.75024C13.2708 8.75024 11.7969 9.35962 10.5781 10.5784C9.35938 11.7971 8.75 13.2711 8.75 15.0002C8.75 16.7294 9.35938 18.2034 10.5781 19.4221C11.7969 20.6409 13.2708 21.2502 15 21.2502ZM15 18.7502C13.9583 18.7502 13.0729 18.3857 12.3438 17.6565C11.6146 16.9273 11.25 16.0419 11.25 15.0002C11.25 13.9586 11.6146 13.0732 12.3438 12.344C13.0729 11.6148 13.9583 11.2502 15 11.2502C16.0417 11.2502 16.9271 11.6148 17.6562 12.344C18.3854 13.0732 18.75 13.9586 18.75 15.0002C18.75 16.0419 18.3854 16.9273 17.6562 17.6565C16.9271 18.3857 16.0417 18.7502 15 18.7502ZM15 25.6252L18.125 22.5002H22.5V18.1252L25.625 15.0002L22.5 11.8752V7.50024H18.125L15 4.37524L11.875 7.50024H7.5V11.8752L4.375 15.0002L7.5 18.1252V22.5002H11.875L15 25.6252Z" fill="black"/>
</g>
</svg>
