<svg width="30" height="30" viewBox="0 0 30 30" fill="none" xmlns="http://www.w3.org/2000/svg">
<mask id="mask0_143_4258" style="mask-type:alpha" maskUnits="userSpaceOnUse" x="0" y="0" width="30" height="30">
<rect width="30" height="30" fill="#D9D9D9"/>
</mask>
<g mask="url(#mask0_143_4258)">
<path d="M21.25 27.5001C20.2083 27.5001 19.3229 27.1355 18.5938 26.4064C17.8646 25.6772 17.5 24.7918 17.5 23.7501C17.5 23.6251 17.5312 23.3335 17.5938 22.8751L8.8125 17.7501C8.47917 18.0626 8.09375 18.3074 7.65625 18.4845C7.21875 18.6616 6.75 18.7501 6.25 18.7501C5.20833 18.7501 4.32292 18.3855 3.59375 17.6564C2.86458 16.9272 2.5 16.0418 2.5 15.0001C2.5 13.9585 2.86458 13.073 3.59375 12.3439C4.32292 11.6147 5.20833 11.2501 6.25 11.2501C6.75 11.2501 7.21875 11.3387 7.65625 11.5157C8.09375 11.6928 8.47917 11.9376 8.8125 12.2501L17.5938 7.12512C17.5521 6.97929 17.526 6.83866 17.5156 6.70325C17.5052 6.56783 17.5 6.41679 17.5 6.25012C17.5 5.20846 17.8646 4.32304 18.5938 3.59387C19.3229 2.86471 20.2083 2.50012 21.25 2.50012C22.2917 2.50012 23.1771 2.86471 23.9062 3.59387C24.6354 4.32304 25 5.20846 25 6.25012C25 7.29179 24.6354 8.17721 23.9062 8.90637C23.1771 9.63554 22.2917 10.0001 21.25 10.0001C20.75 10.0001 20.2812 9.91158 19.8438 9.7345C19.4062 9.55741 19.0208 9.31262 18.6875 9.00012L9.90625 14.1251C9.94792 14.271 9.97396 14.4116 9.98438 14.547C9.99479 14.6824 10 14.8335 10 15.0001C10 15.1668 9.99479 15.3178 9.98438 15.4532C9.97396 15.5887 9.94792 15.7293 9.90625 15.8751L18.6875 21.0001C19.0208 20.6876 19.4062 20.4428 19.8438 20.2657C20.2812 20.0887 20.75 20.0001 21.25 20.0001C22.2917 20.0001 23.1771 20.3647 23.9062 21.0939C24.6354 21.823 25 22.7085 25 23.7501C25 24.7918 24.6354 25.6772 23.9062 26.4064C23.1771 27.1355 22.2917 27.5001 21.25 27.5001ZM21.25 25.0001C21.6042 25.0001 21.901 24.8803 22.1406 24.6407C22.3802 24.4012 22.5 24.1043 22.5 23.7501C22.5 23.396 22.3802 23.0991 22.1406 22.8595C21.901 22.6199 21.6042 22.5001 21.25 22.5001C20.8958 22.5001 20.599 22.6199 20.3594 22.8595C20.1198 23.0991 20 23.396 20 23.7501C20 24.1043 20.1198 24.4012 20.3594 24.6407C20.599 24.8803 20.8958 25.0001 21.25 25.0001ZM6.25 16.2501C6.60417 16.2501 6.90104 16.1303 7.14062 15.8907C7.38021 15.6512 7.5 15.3543 7.5 15.0001C7.5 14.646 7.38021 14.3491 7.14062 14.1095C6.90104 13.8699 6.60417 13.7501 6.25 13.7501C5.89583 13.7501 5.59896 13.8699 5.35938 14.1095C5.11979 14.3491 5 14.646 5 15.0001C5 15.3543 5.11979 15.6512 5.35938 15.8907C5.59896 16.1303 5.89583 16.2501 6.25 16.2501ZM21.25 7.50012C21.6042 7.50012 21.901 7.38033 22.1406 7.14075C22.3802 6.90116 22.5 6.60429 22.5 6.25012C22.5 5.89596 22.3802 5.59908 22.1406 5.3595C21.901 5.11991 21.6042 5.00012 21.25 5.00012C20.8958 5.00012 20.599 5.11991 20.3594 5.3595C20.1198 5.59908 20 5.89596 20 6.25012C20 6.60429 20.1198 6.90116 20.3594 7.14075C20.599 7.38033 20.8958 7.50012 21.25 7.50012Z" fill="black"/>
</g>
</svg>
